<svg width="400" height="400" xmlns="http://www.w3.org/2000/svg">
  <!-- Background -->
  <rect width="400" height="400" fill="transparent"/>
  
  <!-- Workflow elements container -->
  <g transform="translate(50, 50)">
    <!-- Orange rectangle (start element) -->
    <rect x="0" y="0" width="80" height="60" rx="8" ry="8" 
          fill="#FF8C42" stroke="#2C3E50" stroke-width="6"/>
    
    <!-- Blue diamond (decision element) -->
    <g transform="translate(0, 120)">
      <path d="M40 0 L80 30 L40 60 L0 30 Z" 
            fill="#3498DB" stroke="#2C3E50" stroke-width="6"/>
    </g>
    
    <!-- Orange circle (process element) -->
    <circle cx="40" cy="240" r="30" 
            fill="#FF8C42" stroke="#2C3E50" stroke-width="6"/>
    
    <!-- Connecting lines -->
    <path d="M40 60 L40 120" stroke="#2C3E50" stroke-width="4" fill="none"/>
    <path d="M40 180 L40 210" stroke="#2C3E50" stroke-width="4" fill="none"/>
    
    <!-- Curved connection to cloud -->
    <path d="M80 150 Q180 150 200 200" stroke="#2C3E50" stroke-width="4" fill="none"/>
    
    <!-- Arrow -->
    <g transform="translate(180, 280)">
      <path d="M0 0 L40 20 L40 10 L80 10 L80 -10 L40 -10 L40 -20 Z" 
            fill="#2C3E50"/>
    </g>
  </g>
  
  <!-- Cloud with servers -->
  <g transform="translate(200, 120)">
    <!-- Cloud outline -->
    <path d="M20 80 Q0 80 0 60 Q0 40 20 40 Q20 20 40 20 Q60 20 80 20 Q100 20 120 20 Q140 20 140 40 Q160 40 160 60 Q160 80 140 80 Z" 
          fill="#FFFFFF" stroke="#2C3E50" stroke-width="6"/>
    
    <!-- Server stack inside cloud -->
    <g transform="translate(40, 35)">
      <!-- Server 1 -->
      <rect x="0" y="0" width="80" height="25" rx="4" ry="4" 
            fill="#5D6D7E" stroke="#2C3E50" stroke-width="2"/>
      <!-- Server indicators -->
      <circle cx="65" cy="8" r="3" fill="#FFFFFF"/>
      <circle cx="65" cy="17" r="3" fill="#FFFFFF"/>
      
      <!-- Server 2 -->
      <rect x="0" y="30" width="80" height="25" rx="4" ry="4" 
            fill="#5D6D7E" stroke="#2C3E50" stroke-width="2"/>
      <!-- Server indicators -->
      <circle cx="65" cy="38" r="3" fill="#FFFFFF"/>
      <circle cx="65" cy="47" r="3" fill="#FFFFFF"/>
      
      <!-- Server 3 -->
      <rect x="0" y="60" width="80" height="25" rx="4" ry="4" 
            fill="#5D6D7E" stroke="#2C3E50" stroke-width="2"/>
      <!-- Server indicators -->
      <circle cx="65" cy="68" r="3" fill="#FFFFFF"/>
      <circle cx="65" cy="77" r="3" fill="#FFFFFF"/>
    </g>
  </g>
  
  <!-- Additional workflow elements -->
  <g transform="translate(50, 320)">
    <!-- Process flow indicators -->
    <circle cx="0" cy="0" r="8" fill="#3498DB"/>
    <circle cx="40" cy="0" r="8" fill="#FF8C42"/>
    <circle cx="80" cy="0" r="8" fill="#2ECC71"/>
    <circle cx="120" cy="0" r="8" fill="#E74C3C"/>
    
    <!-- Connecting lines between indicators -->
    <line x1="8" y1="0" x2="32" y2="0" stroke="#2C3E50" stroke-width="2"/>
    <line x1="48" y1="0" x2="72" y2="0" stroke="#2C3E50" stroke-width="2"/>
    <line x1="88" y1="0" x2="112" y2="0" stroke="#2C3E50" stroke-width="2"/>
  </g>
</svg>
