<?xml version="1.0" encoding="UTF-8"?>
<svg version="1.1" xmlns="http://www.w3.org/2000/svg" width="600" height="600">
<path d="M0 0 C2.21434186 -0.00963071 4.42772418 -0.04065296 6.6418457 -0.07226562 C17.14939784 -0.15223604 27.79377578 0.21916717 36.68286133 6.49023438 C39.62773268 8.71569945 39.62773268 8.71569945 43.10864258 9.06445312 C45.72009733 8.02675641 48.29856075 6.93567136 50.87036133 5.80273438 C66.29373648 -0.59277575 80.61064676 0.54832146 96.18286133 6.24023438 C98.18146421 6.91107785 100.1810891 7.57890814 102.18286133 8.24023438 C102.18286133 8.90023438 102.18286133 9.56023438 102.18286133 10.24023438 C105.01113876 11.37978305 106.17905172 11.24147401 109.13598633 10.27929688 C110.22395508 9.81265625 111.31192383 9.34601562 112.43286133 8.86523438 C117.40346652 6.87809321 121.810069 5.37522916 127.18286133 5.24023438 C128.94049805 5.16482422 128.94049805 5.16482422 130.73364258 5.08789062 C145.36575274 4.6439509 159.01444837 7.6560279 172.18286133 14.24023438 C173.51619466 15.57356771 174.84952799 16.90690104 176.18286133 18.24023438 C177.47448432 19.30278747 178.76615565 20.3652818 180.05786133 21.42773438 C183.8026337 24.65550459 186.37188734 28.12801123 188.95629883 32.32226562 C190.16853213 34.36906921 190.16853213 34.36906921 192.18286133 36.24023438 C194.49447817 36.30744953 196.80957806 36.26922732 199.12036133 36.17773438 C211.74809882 35.93184724 223.52993058 39.56287278 232.87036133 48.30273438 C242.0681029 58.10174174 248.16906526 70.8074365 249.18286133 84.24023438 C249.86348633 84.48773438 250.54411133 84.73523438 251.24536133 84.99023438 C257.36240653 87.59323233 261.25497558 89.87212385 265.18286133 95.24023438 C266.35848633 96.38492188 266.35848633 96.38492188 267.55786133 97.55273438 C270.26898664 100.32841029 272.49129606 103.23087074 274.75317383 106.37304688 C276.12125113 108.27055885 276.12125113 108.27055885 277.82739258 109.75585938 C280.01744867 112.15419169 279.77645893 115.10513019 280.18286133 118.24023438 C280.84286133 118.57023437 281.50286133 118.90023437 282.18286133 119.24023438 C282.83932415 121.5739754 283.32964645 123.79674725 283.74536133 126.17773438 C283.87612061 126.90831055 284.00687988 127.63888672 284.14160156 128.39160156 C285.47672193 136.68509498 285.66014932 145.02919833 285.80419922 153.41577148 C285.83888306 155.02270874 285.83888306 155.02270874 285.87426758 156.66210938 C285.88659424 157.61698242 285.8989209 158.57185547 285.91162109 159.55566406 C286.20312606 162.44080232 287.01881091 164.59890946 288.18286133 167.24023438 C288.79531224 170.54241814 288.94747718 173.89209779 289.18286133 177.24023438 C289.23861328 177.94035645 289.29436523 178.64047852 289.35180664 179.36181641 C289.5387923 181.73713425 289.70656973 184.11321177 289.87036133 186.49023438 C289.96136108 187.6430188 289.96136108 187.6430188 290.05419922 188.8190918 C290.34452255 193.47082888 289.96588503 196.84745627 288.18286133 201.24023438 C287.89926758 202.11164063 287.61567383 202.98304688 287.32348633 203.88085938 C284.22595911 212.95607071 279.77335725 220.22157052 273.87036133 227.74023438 C270.65443426 232.10731715 269.43192824 234.9819943 269.31958008 240.35742188 C269.13869181 244.17158017 268.41742256 247.81126176 267.68286133 251.55273438 C267.55161865 252.23489014 267.42037598 252.9170459 267.28515625 253.61987305 C266.60006125 257.16309193 265.89455971 260.70227224 265.18286133 264.24023438 C264.52286133 264.24023438 263.86286133 264.24023438 263.18286133 264.24023438 C262.76713867 265.34431641 262.76713867 265.34431641 262.34301758 266.47070312 C259.15937841 274.07070371 254.34725776 279.14490443 248.10864258 284.37695312 C245.66971007 286.73673163 244.76485672 288.9145464 244.18286133 292.24023438 C243.52286133 292.24023438 242.86286133 292.24023438 242.18286133 292.24023438 C242.21379883 293.41585937 242.21379883 293.41585937 242.24536133 294.61523438 C242.18286133 297.24023437 242.18286133 297.24023437 241.18286133 299.24023438 C240.52286133 299.24023438 239.86286133 299.24023438 239.18286133 299.24023438 C238.92118164 299.9440625 238.65950195 300.64789063 238.38989258 301.37304688 C234.14854139 311.4479717 227.87344011 320.54965559 220.18286133 328.24023438 C219.10004883 329.87992187 219.10004883 329.87992187 217.99536133 331.55273438 C217.39723633 332.43960937 216.79911133 333.32648438 216.18286133 334.24023438 C215.52286133 334.24023438 214.86286133 334.24023438 214.18286133 334.24023438 C213.93536133 334.7378125 213.68786133 335.23539062 213.43286133 335.74804688 C212.39891537 337.80947663 211.35526306 339.86532379 210.30786133 341.91992188 C209.59941831 343.31830381 208.89108818 344.71674295 208.18286133 346.11523438 C207.82708008 346.81003906 207.47129883 347.50484375 207.10473633 348.22070312 C205.53678507 351.32735282 204.17540593 354.26299995 203.08911133 357.58007812 C201.90040972 361.06932723 199.85965285 362.76420222 197.18286133 365.24023438 C196.52286133 366.23023438 195.86286133 367.22023438 195.18286133 368.24023438 C194.52286133 368.24023438 193.86286133 368.24023438 193.18286133 368.24023438 C193.18286133 368.90023438 193.18286133 369.56023437 193.18286133 370.24023438 C188.77464187 372.73006203 184.35232966 375.19780186 179.87036133 377.55273438 C179.25547852 377.87886719 178.6405957 378.205 178.00708008 378.54101562 C176.18286133 379.24023438 176.18286133 379.24023438 172.18286133 379.24023438 C172.51286133 380.23023438 172.84286133 381.22023438 173.18286133 382.24023438 C173.38492293 384.54991079 173.54685679 386.86322864 173.68286133 389.17773438 C173.99433416 394.7808797 173.99433416 394.7808797 175.18286133 400.24023438 C176.30563477 400.43359375 177.4284082 400.62695312 178.58520508 400.82617188 C186.15861366 402.1403835 193.69948064 403.4714353 201.18286133 405.24023438 C201.18286133 405.90023438 201.18286133 406.56023437 201.18286133 407.24023438 C202.20379883 407.54960938 202.20379883 407.54960938 203.24536133 407.86523438 C213.20185167 412.52571922 217.76355213 421.32653338 221.50024414 431.20800781 C224.32934564 439.63055463 225.35944053 448.39165436 225.18286133 457.24023438 C226.04967529 457.50723145 226.91648926 457.77422852 227.80957031 458.04931641 C231.13171711 459.22217825 234.05462903 460.62885419 237.15551758 462.29492188 C238.29230957 462.90392334 239.42910156 463.5129248 240.6003418 464.14038086 C241.81552206 464.79834457 243.03052477 465.45663628 244.24536133 466.11523438 C245.50199464 466.79247306 246.75866824 467.469637 248.01538086 468.14672852 C258.0883595 473.58841638 268.0522962 479.21154928 277.95825195 484.95166016 C281.23549497 486.84995785 284.52093865 488.73376404 287.80786133 490.61523438 C288.79012695 491.17984375 289.77239258 491.74445313 290.78442383 492.32617188 C293.63416324 493.93119752 296.49856113 495.49901956 299.37426758 497.05664062 C305.14584721 500.19766295 310.82752807 503.4789088 316.49536133 506.80273438 C317.53007568 507.40915771 318.56479004 508.01558105 319.63085938 508.64038086 C321.76963985 509.89441812 323.90806777 511.14905686 326.04614258 512.40429688 C329.01311819 514.14088285 331.98734237 515.86425541 334.96411133 517.58398438 C345.03304057 523.42977742 354.81004851 529.50087878 364.28369141 536.27954102 C365.01740967 536.79895264 365.75112793 537.31836426 366.50708008 537.85351562 C367.14734131 538.31540283 367.78760254 538.77729004 368.44726562 539.25317383 C370.28471617 540.48741447 370.28471617 540.48741447 373.18286133 540.24023438 C373.57473633 540.92085937 373.96661133 541.60148438 374.37036133 542.30273438 C376.55048131 545.83603228 379.18594778 548.03798482 382.34301758 550.68945312 C384.18286133 552.24023437 384.18286133 552.24023437 386.18286133 554.24023438 C386.18286133 569.42023437 386.18286133 584.60023438 386.18286133 600.24023438 C188.18286133 600.24023438 -9.81713867 600.24023438 -213.81713867 600.24023438 C-213.81713867 518.24023438 -213.81713867 518.24023438 -205.81713867 510.24023438 C-192.92665206 499.68231201 -178.40998216 492.86877354 -162.81713867 487.24023438 C-161.67760742 486.80453125 -160.53807617 486.36882812 -159.36401367 485.91992188 C-152.32847444 483.27490052 -145.18554555 480.91744221 -138.06958008 478.4987793 C-136.13561434 477.84086901 -134.20287124 477.17946556 -132.27026367 476.51757812 C-131.1271875 476.12820068 -129.98411133 475.73882324 -128.80639648 475.33764648 C-125.92051071 474.34860756 -125.92051071 474.34860756 -123.72631836 473.16040039 C-121.44439297 472.06058238 -119.3049387 471.70847749 -116.81713867 471.24023438 C-114.71022781 470.61269506 -112.61178395 469.95636548 -110.52026367 469.27929688 C-108.71041992 468.69535156 -108.71041992 468.69535156 -106.86401367 468.09960938 C-104.98456055 467.48859375 -104.98456055 467.48859375 -103.06713867 466.86523438 C-101.82963867 466.465625 -100.59213867 466.06601562 -99.31713867 465.65429688 C-92.80608727 463.54859514 -86.30548949 461.41470169 -79.81713867 459.24023438 C-77.4422424 458.44825659 -75.06723093 457.65662422 -72.69213867 456.86523438 C-71.39525753 456.43296115 -70.09838261 456.00066923 -68.80151367 455.56835938 C-66.14526367 454.68294271 -63.48901367 453.79752604 -60.83276367 452.91210938 C-60.1854126 452.69627197 -59.53806152 452.48043457 -58.87109375 452.25805664 C-56.98745214 451.63033504 -55.10347136 451.0036315 -53.21948242 450.37695312 C-51.12619901 449.67758978 -49.03463834 448.97301317 -46.94604492 448.25976562 C-41.02019032 446.24023438 -41.02019032 446.24023438 -38.81713867 446.24023438 C-38.48713867 445.58023437 -38.15713867 444.92023438 -37.81713867 444.24023438 C-35.50713867 444.24023438 -33.19713867 444.24023438 -30.81713867 444.24023438 C-30.48713867 441.60023438 -30.15713867 438.96023438 -29.81713867 436.24023438 C-29.15713867 436.24023438 -28.49713867 436.24023438 -27.81713867 436.24023438 C-28.14713867 435.25023437 -28.47713867 434.26023437 -28.81713867 433.24023438 C-28.15391602 432.64082031 -28.15391602 432.64082031 -27.47729492 432.02929688 C-25.61698517 430.02453954 -24.53754811 428.02787004 -23.25463867 425.61523438 C-20.26831108 420.44194971 -16.56538803 417.10433402 -11.89135742 413.44335938 C-9.35125923 410.74540198 -9.09248643 408.87690283 -8.81713867 405.24023438 C-9.67952148 405.22605469 -10.5419043 405.211875 -11.43041992 405.19726562 C-32.26447582 404.38326344 -55.57365338 398.09589393 -70.31713867 382.61523438 C-74.43921942 373.34055269 -75.03200752 364.16520088 -74.83422852 354.20288086 C-74.70070339 345.77922592 -75.7155986 337.57778555 -76.81713867 329.24023438 C-76.99879625 327.79891216 -77.17979783 326.35750709 -77.36010742 324.91601562 C-78.06097745 318.57502084 -78.06097745 318.57502084 -79.32861328 312.34033203 C-79.8602376 310.05495851 -80.00950604 307.94365245 -80.09838867 305.59960938 C-80.13432129 304.70129395 -80.17025391 303.80297852 -80.20727539 302.87744141 C-80.24353027 301.92466309 -80.27978516 300.97188477 -80.31713867 299.99023438 C-80.36499512 299.01038574 -80.41285156 298.03053711 -80.4621582 297.02099609 C-80.67950258 292.5068639 -80.84634948 288.03218254 -80.71557617 283.51367188 C-80.51168357 275.92653013 -80.51168357 275.92653013 -84.25854492 269.58789062 C-87.1859375 267.39637285 -87.1859375 267.39637285 -90.25073242 265.72070312 C-92.81713867 264.24023438 -92.81713867 264.24023438 -94.81713867 261.24023438 C-95.89953226 255.42340165 -96.03900638 250.28093201 -92.94604492 245.11523438 C-90.67216916 242.36716777 -88.29701457 239.80222537 -85.81713867 237.24023438 C-85.10041992 236.31210938 -84.38370117 235.38398438 -83.64526367 234.42773438 C-82.7403418 233.34492188 -82.7403418 233.34492188 -81.81713867 232.24023438 C-81.15713867 232.24023438 -80.49713867 232.24023438 -79.81713867 232.24023438 C-79.81713867 231.58023438 -79.81713867 230.92023438 -79.81713867 230.24023438 C-78.19087463 228.85790994 -76.52463847 227.52085922 -74.81713867 226.24023438 C-75.30037428 222.56764378 -76.13524001 219.23404211 -77.31713867 215.74023438 C-79.31759587 209.358288 -79.53944412 202.88575238 -79.81713867 196.24023438 C-80.79553711 196.27503906 -81.77393555 196.30984375 -82.78198242 196.34570312 C-90.34923857 196.50195915 -96.84238206 196.44617514 -103.81713867 193.24023438 C-104.7375293 192.86125 -105.65791992 192.48226562 -106.60620117 192.09179688 C-120.88604394 185.70830127 -132.67471123 173.59965791 -138.75073242 159.18164062 C-145.34138605 141.00302458 -143.71665059 124.52973215 -135.81713867 107.24023438 C-134.85641539 105.21288131 -133.86443797 103.22459095 -132.81713867 101.24023438 C-132.15713867 101.24023438 -131.49713867 101.24023438 -130.81713867 101.24023438 C-130.57866211 100.675625 -130.34018555 100.11101562 -130.09448242 99.52929688 C-128.54211743 96.74738285 -126.65082849 94.84540106 -124.37963867 92.61523438 C-123.59717773 91.83921875 -122.8147168 91.06320313 -122.00854492 90.26367188 C-119.81713867 88.24023438 -119.81713867 88.24023438 -116.81713867 86.24023438 C-116.09529149 83.74470556 -115.51877498 81.34026458 -115.00463867 78.80273438 C-113.364616 71.5190082 -110.82574909 65.58172462 -106.81713867 59.24023438 C-106.19838867 58.14710937 -105.57963867 57.05398437 -104.94213867 55.92773438 C-102.49629497 52.83446145 -99.83367699 50.79146504 -96.62182617 48.53710938 C-94.69623134 47.22704478 -94.69623134 47.22704478 -92.81713867 45.24023438 C-90.39009696 44.15740038 -87.97638088 43.14616721 -85.50463867 42.17773438 C-84.84012695 41.90896484 -84.17561523 41.64019531 -83.4909668 41.36328125 C-77.73188696 39.07901714 -73.45643359 38.11512327 -67.31713867 38.61523438 C-63.33616779 38.72665902 -63.33616779 38.72665902 -60.02807617 36.79101562 C-58.04329109 34.02276275 -56.89537244 31.47493567 -55.81713867 28.24023438 C-55.15713867 28.24023438 -54.49713867 28.24023438 -53.81713867 28.24023438 C-53.55674805 27.675625 -53.29635742 27.11101563 -53.02807617 26.52929688 C-51.69963438 24.01811335 -50.16919192 21.87020783 -48.44213867 19.61523438 C-47.8569043 18.83921875 -47.27166992 18.06320313 -46.66870117 17.26367188 C-44.78779233 15.2081639 -43.36203633 14.29974279 -40.81713867 13.24023438 C-39.70338867 12.68335938 -39.70338867 12.68335938 -38.56713867 12.11523438 C-37.98963867 11.82648437 -37.41213867 11.53773437 -36.81713867 11.24023438 C-36.81713867 10.58023437 -36.81713867 9.92023437 -36.81713867 9.24023438 C-33.92511188 7.91922943 -31.02791073 6.60997351 -28.12963867 5.30273438 C-26.90470703 4.74295898 -26.90470703 4.74295898 -25.6550293 4.171875 C-24.46103516 3.63530273 -24.46103516 3.63530273 -23.24291992 3.08789062 C-22.51500244 2.75797119 -21.78708496 2.42805176 -21.03710938 2.08813477 C-14.28457793 -0.49094164 -7.11724435 0.0186743 0 0 Z " fill="#141312" transform="translate(213.817138671875,-0.240234375)"/>
<path d="M0 0 C2.95623538 0.9708347 5.89045012 1.95807728 8.796875 3.0703125 C22.78279413 8.06528362 36.22868467 7.27002849 50 2 C51.99766499 1.32636878 53.99705682 0.65777128 56 0 C56.63615234 0.85271484 56.63615234 0.85271484 57.28515625 1.72265625 C67.79580986 15.55975848 79.2218757 24.04754479 96.5 27.75 C101.66782628 28.11913045 106.8216476 28.07652738 112 28 C111.96519531 29.26714844 111.93039062 30.53429687 111.89453125 31.83984375 C111.86636763 33.53904911 111.83907025 35.23826898 111.8125 36.9375 C111.78736328 37.76830078 111.76222656 38.59910156 111.73632812 39.45507812 C111.65388972 46.51730113 112.48177774 52.94417973 117.0859375 58.53125 C117.84132813 59.1809375 118.59671875 59.830625 119.375 60.5 C125.1992019 66.00116297 129.16946306 71.01529379 129.625 79.25 C129.3607845 86.11960301 127.48742026 92.6327465 125.79516602 99.26049805 C124.01566339 106.39977752 122.22954717 113.97301476 124.75390625 121.140625 C126.32812239 123.48961209 127.88255567 124.37503347 130.375 125.6875 C131.14585937 126.10386719 131.91671875 126.52023437 132.7109375 126.94921875 C139.00531931 129.83861927 146.63990575 130.15435885 153.31640625 128.38671875 C162.4143522 124.34516546 167.2630493 115.33261952 171.625 106.875 C175.60808755 99.21609166 179.14092777 92.45827456 186.625 87.6875 C187.38039063 87.19636719 188.13578125 86.70523438 188.9140625 86.19921875 C195.08798298 82.64979256 203.68090324 82.92022581 210.453125 84.61328125 C216.57246284 87.34770977 221.34313331 92.35136804 224.1015625 98.42578125 C227.52947897 108.72554897 226.42676156 118.12222618 222 128 C213.90236731 143.94176167 203.62676211 158.23483142 186.75 165.375 C177.39834794 166.93360868 169.11603157 167.25154984 161 162 C160.67 161.67 160.34 161.34 160 161 C157.66702567 160.95907063 155.33294775 160.95758277 153 161 C152.67526458 164.4909058 152.73629675 166.51845494 154.4375 169.625 C159.17745874 174.01813249 164.74389514 175.80416115 171 177 C170.94013916 177.64179199 170.88027832 178.28358398 170.81860352 178.94482422 C168.33434482 205.42845021 168.33434482 205.42845021 168 232 C168.01401855 232.763125 168.02803711 233.52625 168.04248047 234.3125 C168.44025122 254.78334104 170.34056083 275.86563895 178 295 C178.33 295.99 178.66 296.98 179 298 C174.33139551 305.62500684 167.9357754 312.33904668 161.875 318.875 C161.31417725 319.48053711 160.75335449 320.08607422 160.17553711 320.70996094 C137.73043267 344.47345077 107.27682519 363.4562324 77.125 375.6875 C76.32328369 376.01459961 75.52156738 376.34169922 74.69555664 376.67871094 C69.76476942 378.58794006 65.31382507 379.92893032 60 380 C56.9453125 378.4453125 56.9453125 378.4453125 54.125 376.125 C53.61670654 375.7129834 53.10841309 375.3009668 52.5847168 374.87646484 C51.03682297 373.60792106 49.51810871 372.30404164 48 371 C46.67548828 369.90171875 46.67548828 369.90171875 45.32421875 368.78125 C21.80008775 348.5863506 12.44147222 320.03621199 10 290 C9.12877661 278.33081503 8.85477037 266.6990539 9 255 C10.28390625 254.96261719 11.5678125 254.92523438 12.890625 254.88671875 C50.12255917 253.59722423 86.9595682 244.52823242 113.8046875 217.16015625 C117.46901782 213.1403312 119.74607817 208.94129016 122 204 C121.13375 204.94875 120.2675 205.8975 119.375 206.875 C89.59785404 236.3543745 41.25124738 244.23997903 1.26147461 244.25097656 C-15.89369201 244.09560902 -38.90265756 242.05356783 -51.703125 229.30859375 C-54.34098209 225.95847946 -54.9835521 222.61891482 -55.3125 218.4375 C-55.38388184 217.72021729 -55.45526367 217.00293457 -55.52880859 216.26391602 C-56.35493639 206.8614615 -56.12485832 197.42680292 -56 188 C-49.4 188 -42.8 188 -36 188 C-36 187.34 -36 186.68 -36 186 C-36.67804688 185.89042969 -37.35609375 185.78085937 -38.0546875 185.66796875 C-55.77491845 182.64914824 -55.77491845 182.64914824 -58.625 178.8125 C-59.11309729 175.15177032 -59.12520572 171.69356875 -59 168 C-46.38914329 162.35770939 -29.08735795 167.44098469 -15.9375 169.6796875 C-10.2867757 170.63455526 -5.61825741 171.30657149 0 170 C0.33 168.68 0.66 167.36 1 166 C-2.31325785 163.79116143 -4.42212718 163.40367532 -8.3203125 162.74609375 C-9.5784375 162.53146484 -10.8365625 162.31683594 -12.1328125 162.09570312 C-12.78926758 161.98750244 -13.44572266 161.87930176 -14.12207031 161.76782227 C-16.09825722 161.44191041 -18.07258987 161.10481906 -20.046875 160.76757812 C-29.48400331 159.17710487 -38.67307628 157.81932021 -48.25 157.875 C-49.2709375 157.86919922 -49.2709375 157.86919922 -50.3125 157.86328125 C-54.00093986 157.87042939 -57.41405759 158.1243629 -61 159 C-61.87505177 155.17281629 -62.18632495 151.52649091 -62.31640625 147.60546875 C-62.35830078 146.40341797 -62.40019531 145.20136719 -62.44335938 143.96289062 C-62.48267578 142.71701172 -62.52199219 141.47113281 -62.5625 140.1875 C-62.60568359 138.92228516 -62.64886719 137.65707031 -62.69335938 136.35351562 C-62.7992447 133.23578111 -62.90132405 130.11796965 -63 127 C-58.21533927 127.48585526 -53.50994875 128.00026285 -48.8125 129.0625 C-42.29677078 130.5112852 -42.29677078 130.5112852 -36 129 C-36 127.35 -36 125.7 -36 124 C-41.24833972 122.09973907 -46.32994437 120.6898693 -51.8125 119.625 C-60.59447346 117.80967865 -69.31465313 115.2308868 -76 109 C-76.47448091 105.04599238 -75.86445966 103.22069303 -73.578125 99.9921875 C-71.15975023 97.21589326 -68.59756852 94.60635646 -66 92 C-65.2879541 91.27570801 -64.5759082 90.55141602 -63.84228516 89.80517578 C-48.57475824 74.27511616 -48.57475824 74.27511616 -40.69018555 67.4855957 C-33.45388034 61.12521477 -28.56742739 54.20196296 -27.796875 44.421875 C-27.66069594 36.65966862 -28.44134189 30.34047031 -33.25 24.0625 C-38.65813089 20.00640184 -44.35228044 19.75844744 -50.9375 19.875 C-51.62134766 19.88402344 -52.30519531 19.89304688 -53.00976562 19.90234375 C-54.67333287 19.92561042 -56.33671631 19.96146833 -58 20 C-56.68 17.36 -55.36 14.72 -54 12 C-53.06800781 12.23783203 -53.06800781 12.23783203 -52.1171875 12.48046875 C-35.96382039 15.1726966 -18.88010923 13.39421969 -4.953125 4.46484375 C-3.12547537 3.09410653 -1.5605751 1.66428421 0 0 Z " fill="#D39672" transform="translate(208,148)"/>
<path d="M0 0 C0.8353125 0.598125 1.670625 1.19625 2.53125 1.8125 C4.93535041 3.29446389 4.93535041 3.29446389 7.4375 2.37890625 C8.283125 1.92386719 9.12875 1.46882813 10 1 C10.969375 0.51402344 11.93875 0.02804688 12.9375 -0.47265625 C14.98023261 -1.53310545 17.02190022 -2.59560866 19.0625 -3.66015625 C29.35699598 -8.35565109 41.57255764 -6.27495049 52 -3 C65.81655202 2.44171462 73.07192382 12.25233982 80 25 C81.98 25 83.96 25 86 25 C87.67237326 19.08237153 86.45470585 15.84546467 83.546875 10.51171875 C81.26932548 6.81357647 78.73805904 3.36847126 76 0 C89.81035457 -5.8294964 106.97426409 -4.01651808 120.734375 0.99609375 C131.37145016 5.76956381 138.75581072 13.74194057 144 24 C144.3815625 24.69480469 144.763125 25.38960937 145.15625 26.10546875 C146 28 146 28 146 31 C146.66644531 30.7834375 147.33289063 30.566875 148.01953125 30.34375 C159.26698816 26.94591686 168.81425087 26.75049297 179.34765625 32.21875 C190.20326552 38.74298929 195.11202833 50.57561199 198.3125 62.4375 C198.88846055 65.42202286 199.18882538 67.97879397 199 71 C199.69480469 71.25523438 200.38960938 71.51046875 201.10546875 71.7734375 C214.57330927 77.48045764 224.54472834 85.90393088 230.52734375 99.34375 C235.20263864 110.9513787 235.414547 122.3137123 235.53466797 134.69970703 C235.65143292 141.60813909 236.48256772 147.65973046 238.32324219 154.31591797 C241.88403842 168.4383544 237.80419737 182.6473347 230.97265625 195.01953125 C229.10051639 197.84813069 227.27693378 199.65520734 224.75 201.875 C218.95872954 207.85560046 219.42095197 216.57039949 218.625 224.43359375 C217.54064231 234.97967644 214.4692748 243.34470877 207 251 C206.24460937 251.57621094 205.48921875 252.15242188 204.7109375 252.74609375 C196.99857547 258.63442095 194.04481552 265.56460169 190.10424805 274.27148438 C184.92812345 285.61511923 178.52733224 294.47596175 169.875 303.375 C163.88589984 309.53725604 160.35549004 316.27323509 156.87451172 324.06567383 C151.86240158 335.15192414 146.67214874 342.34902885 135 347 C134.67 347 134.34 347 134 347 C133.58963945 332.81976308 134.87346817 318.84606954 138 305 C138.81082031 304.79246094 139.62164062 304.58492188 140.45703125 304.37109375 C159.65434369 299.0298159 171.20126543 286.71852082 181 270 C188.89595772 255.73465805 194.50435946 242.66209633 190.13671875 226.1796875 C186.61674632 216.3334416 180.87341118 209.55126245 171.65625 204.7890625 C161.76082306 200.37369795 153.23871281 200.16086645 143.01171875 203.70703125 C131.58929701 208.61082061 124.87572763 218.46587828 119.375 229.1875 C115.52054005 236.67065867 112.03033682 243.36722858 104 247 C98.41771413 247.62025399 94.90426796 246.40209043 90 244 C89.47905025 236.32684429 91.82839904 229.40156921 93.8671875 222.06835938 C96.77133607 211.1363144 97.14218206 202.29944384 92 192 C89.40104653 188.0543733 86.38019083 184.55579546 83.25 181.02734375 C82.445625 180.11662109 82.445625 180.11662109 81.625 179.1875 C80.90183594 178.40439453 80.90183594 178.40439453 80.1640625 177.60546875 C76.31208678 172.29284452 77.81584537 164.45113854 78.75 158.375 C79.40083678 154.93554138 80.09296609 152.4370386 82.1875 149.625 C84.3193428 147.1338669 84.3193428 147.1338669 83.75 144.125 C83.5025 143.42375 83.255 142.7225 83 142 C79.0644594 140.90411391 77.27270569 141.04619256 73.6875 142.9375 C65.13272061 146.60200998 54.82420059 146.3037707 46.0625 143.375 C34.07945398 138.21389672 21.44706826 128.16984396 16 116 C12.96230605 108.15188162 10.59115772 100.32804931 9.359375 91.9765625 C9.19459537 90.00485871 9.19459537 90.00485871 8 89 C5 88.83333333 5 88.83333333 2 89 C0.28871078 90.71128922 0.74628902 92.84522171 0.6875 95.1875 C0.71038774 101.55029201 2.18934508 107.0376477 4.125 113.06640625 C5 116 5 116 5 119 C3.41800369 119.64910154 1.83434276 120.29414694 0.25 120.9375 C-1.07257813 121.47697266 -1.07257813 121.47697266 -2.421875 122.02734375 C-12.55621448 125.85075365 -23.92625297 124.52053725 -34 121 C-37.05352619 119.33041068 -39.49777633 117.40690087 -42 115 C-42.9075 114.154375 -43.815 113.30875 -44.75 112.4375 C-48.4153252 107.82788763 -49.51695874 101.58418888 -51 96 C-53.31 96 -55.62 96 -58 96 C-59.96498967 99.92997935 -59.37631304 103.68104142 -58.2109375 107.765625 C-56.34602075 113.26326409 -56.34602075 113.26326409 -53.30078125 118.14453125 C-52.65689453 119.06298828 -52.65689453 119.06298828 -52 120 C-53 123 -53 123 -55.40625 124.53515625 C-69.1542174 131.32234723 -82.24159406 133.25838729 -97.3046875 128.98046875 C-103.4212074 126.75547383 -108.51805271 123.62468408 -112 118 C-113.71267192 113.31268739 -114.34376799 108.75871194 -114.75390625 103.8203125 C-114.81510058 101.98290012 -114.81510058 101.98290012 -116 101 C-117.99958364 100.95919217 -120.00045254 100.95745644 -122 101 C-124.53471758 106.06943516 -123.61906159 113.5271181 -122.28125 118.87109375 C-119.56931545 126.05553326 -115.99607382 131.40201918 -109 135 C-109.75763144 138.53277582 -111.07033788 141.72370349 -112.4375 145.0625 C-114.75648484 150.9873052 -116.15484842 156.70551287 -117 163 C-124.71127352 165.57042451 -134.43091971 163.60406858 -141.69921875 160.28515625 C-154.3426407 153.22287132 -163.02935613 142.28197368 -167.8125 128.69140625 C-171.06269712 116.39031297 -169.26942315 103.08667544 -163.20703125 91.9609375 C-157.90161448 83.34178145 -151.15847562 76.57923781 -142 72 C-141.68114983 69.51850832 -141.68114983 69.51850832 -141.625 66.5625 C-140.83685078 54.93384217 -135.60131626 45.97410805 -127.35546875 37.8984375 C-121.10592953 32.86149544 -113.25380935 29.85093712 -105.234375 29.90234375 C-104.34492188 29.90556641 -103.45546875 29.90878906 -102.5390625 29.91210938 C-101.61867188 29.92048828 -100.69828125 29.92886719 -99.75 29.9375 C-98.34621094 29.94426758 -98.34621094 29.94426758 -96.9140625 29.95117188 C-94.60930959 29.96293082 -92.30468773 29.97936574 -90 30 C-89.84724609 28.67935547 -89.84724609 28.67935547 -89.69140625 27.33203125 C-87.27627523 15.69300999 -76.31038192 4.94963502 -66.7265625 -1.4296875 C-45.83652536 -13.46091233 -20.60812153 -11.63752745 0 0 Z " fill="#462C23" transform="translate(252,20)"/>
<path d="M0 0 C10.44269812 4.9449247 20.42882369 10.49876184 30.37695312 16.37158203 C38.01832277 20.87258146 45.73338573 25.21915394 53.5 29.5 C63.19685349 34.85166012 72.80722004 40.32900322 82.35668945 45.93920898 C87.9052617 49.19859727 93.47343643 52.41645194 99.07495117 55.58398438 C123.18117449 69.2263812 144.33061407 83.33061407 164 103 C164 112.57 164 122.14 164 132 C40.91 132 -82.18 132 -209 132 C-208.30077175 127.80463051 -207.56919102 124.30485698 -206.29296875 120.32421875 C-205.95531494 119.2566333 -205.61766113 118.18904785 -205.26977539 117.08911133 C-204.91262451 115.96657959 -204.55547363 114.84404785 -204.1875 113.6875 C-198.70852357 96.73122997 -198.70852357 96.73122997 -195.65234375 79.23046875 C-195 76 -195 76 -193.32421875 74.203125 C-186.77963771 70.81534187 -178.64868856 67.75820324 -171.21484375 69.15625 C-166.16367453 71.08050494 -162.13205855 74.60155427 -158 78 C-156.80345535 78.97664819 -155.60683703 79.95320612 -154.41015625 80.9296875 C-152.4267656 82.54991856 -150.44405505 84.17091404 -148.46435547 85.7956543 C-140.21847238 92.52488733 -131.63126549 98.777543 -123 105 C-122.24477051 105.5460791 -121.48954102 106.0921582 -120.71142578 106.65478516 C-115.84777871 110.16276353 -110.94709202 113.61076329 -106 117 C-105.38334473 117.42635742 -104.76668945 117.85271484 -104.13134766 118.29199219 C-96.31616936 124.17363411 -96.31616936 124.17363411 -87.13598633 125.73022461 C-78.04531068 122.62241676 -70.43160668 113.88413953 -63.875 107.1875 C-63.00117676 106.30312256 -62.12735352 105.41874512 -61.22705078 104.50756836 C-55.4285379 98.58881985 -50.00476257 92.60832936 -45 86 C-44.24460937 85.07316406 -43.48921875 84.14632812 -42.7109375 83.19140625 C-22.95794774 58.57855393 -9.89034045 29.78009167 0 0 Z " fill="#E3D3C9" transform="translate(436,468)"/>
<path d="M0 0 C-0.51429414 3.96277171 -1.15571515 7.85359995 -1.97265625 11.765625 C-5.8873621 31.07474302 -7.21873038 51.59860717 -3 71 C-2.86577637 71.62874023 -2.73155273 72.25748047 -2.59326172 72.90527344 C-0.06907675 84.49472068 2.94392133 97.29789182 10 107 C12.74198603 107.91342712 14.37537808 108.19685699 17.1496582 107.32250977 C17.85952881 106.94924561 18.56939941 106.57598145 19.30078125 106.19140625 C20.10612305 105.77745605 20.91146484 105.36350586 21.74121094 104.93701172 C22.58973633 104.48342285 23.43826172 104.02983398 24.3125 103.5625 C26.09495139 102.63912851 27.87750501 101.71595436 29.66015625 100.79296875 C30.55105957 100.32552246 31.44196289 99.85807617 32.35986328 99.37646484 C36.29733467 97.32362004 40.27273426 95.34928684 44.25 93.375 C45.56792531 92.71657996 46.88565657 92.05777126 48.203125 91.3984375 C49.12609375 90.93695312 50.0490625 90.47546875 51 90 C49.50991348 99.65008411 47.30207769 108.94213908 44.5625 118.3125 C44.27431396 119.30121094 43.98612793 120.28992188 43.68920898 121.30859375 C38.17195614 139.82804386 38.17195614 139.82804386 36 142 C33.24361485 142.09787909 30.51229161 142.12993232 27.75547791 142.12025452 C26.88074328 142.12110894 26.00600865 142.12196337 25.10476691 142.12284368 C22.15047207 142.12450117 19.19623303 142.11897273 16.24194336 142.11352539 C14.1334483 142.11324355 12.02495314 142.11340119 9.91645813 142.1139679 C4.17289034 142.114256 -1.57065676 142.10835726 -7.31421971 142.10139394 C-13.30936788 142.09516246 -19.30451646 142.09455677 -25.29966736 142.09336853 C-36.66108096 142.0902546 -48.022485 142.08204039 -59.38389438 142.07201904 C-72.31474646 142.0608598 -85.24559898 142.05534793 -98.17645466 142.05032361 C-124.78430842 142.03985783 -151.39215368 142.0222572 -178 142 C-178.27992669 133.88048624 -178.49217274 125.76303552 -178.62174606 117.63986683 C-178.68398771 113.86631412 -178.76814935 110.09609594 -178.90527344 106.32446289 C-179.88832816 78.56312976 -179.88832816 78.56312976 -173.93438721 71.36808777 C-171.44706376 68.92852546 -168.86415101 66.99654161 -166 65 C-164.95877219 64.0923462 -163.9317352 63.16813385 -162.92016602 62.22753906 C-152.40504862 52.47098687 -140.18327972 46.55662741 -126.78125 41.8359375 C-125.70007401 41.45113724 -124.61889801 41.06633698 -123.50495911 40.6698761 C-110.93173291 36.223088 -98.27772379 32.01680229 -85.61718369 27.82661819 C-82.32319239 26.7356364 -79.03042337 25.64097768 -75.73754883 24.54663086 C-70.5338809 22.81761734 -65.3296559 21.09029518 -60.125 19.36425781 C-51.54329298 16.51768879 -42.96569603 13.6588576 -34.3890686 10.79702759 C-32.28316983 10.09441912 -30.17714281 9.39219693 -28.07104492 8.69018555 C-27.42653885 8.47531998 -26.78203278 8.26045441 -26.11799622 8.03907776 C-24.29160385 7.43052638 -22.46489904 6.82291293 -20.63818359 6.21533203 C-18.02431071 5.34217009 -15.412916 4.46309645 -12.80322266 3.57763672 C-12.1126326 3.34443222 -11.42204254 3.11122772 -10.71052551 2.87095642 C-8.78721293 2.2212368 -6.86488864 1.56859373 -4.94262695 0.91577148 C-2 0 -2 0 0 0 Z " fill="#E3D3C9" transform="translate(178,458)"/>
<path d="M0 0 C10.55721851 0.32634369 19.39085119 1.68546119 27.37109375 9.0546875 C35.57334822 18.85018564 38.79922789 32.52406764 38.46875 45.0546875 C36.6267564 60.5581336 29.79247679 75.11660216 23 89 C22.64566895 89.7331543 22.29133789 90.46630859 21.92626953 91.22167969 C9.37561315 116.93150912 -8.89706107 138.82425427 -28.875 159.0625 C-29.50567383 159.70630615 -30.13634766 160.3501123 -30.78613281 161.01342773 C-37.11350432 167.35176668 -37.11350432 167.35176668 -41 169 C-45.8294372 168.96015316 -49.33432619 166.01742899 -53.125 163.3125 C-53.81440674 162.82918213 -54.50381348 162.34586426 -55.21411133 161.84790039 C-68.37874425 152.56377178 -81.33471074 142.9548839 -94 133 C-94.53189941 132.58314941 -95.06379883 132.16629883 -95.61181641 131.73681641 C-97.18489902 130.4990351 -98.7488753 129.24970767 -100.3125 128 C-101.21613281 127.278125 -102.11976563 126.55625 -103.05078125 125.8125 C-103.69402344 125.214375 -104.33726562 124.61625 -105 124 C-105 123.34 -105 122.68 -105 122 C-104.02804687 121.63390625 -103.05609375 121.2678125 -102.0546875 120.890625 C-78.13408344 111.60848678 -55.02245712 98.05706115 -35 82 C-34.00355469 81.20722656 -33.00710938 80.41445313 -31.98046875 79.59765625 C-14.07561436 65.06040748 8.30332381 45.34402369 13.7421875 21.78515625 C14.19599738 18.91745186 14.19599738 18.91745186 13 16 C9.64541845 15.23477199 9.64541845 15.23477199 6 15 C4.26212287 16.40372722 4.26212287 16.40372722 3 18 C2.49309416 15.93918639 1.99475381 13.87626474 1.5 11.8125 C1.2215625 10.66394531 0.943125 9.51539063 0.65625 8.33203125 C0.08504615 5.43181171 -0.13283779 2.93903615 0 0 Z " fill="#E3D3C9" transform="translate(389,413)"/>
<path d="M0 0 C0.06731323 0.95700806 0.06731323 0.95700806 0.13598633 1.93334961 C2.729611 37.90495355 9.47873633 70.66981171 36 97 C37.10433576 97.91683749 38.21626161 98.82461708 39.3359375 99.72265625 C40.21507812 100.47417969 41.09421875 101.22570312 42 102 C42 102.66 42 103.32 42 104 C41.05382812 104.268125 40.10765625 104.53625 39.1328125 104.8125 C23.77570073 109.30395352 9.67426853 115.75114622 -4.16357422 123.76245117 C-4.8701416 124.16955322 -5.57670898 124.57665527 -6.3046875 124.99609375 C-6.92327637 125.35888428 -7.54186523 125.7216748 -8.17919922 126.09545898 C-10.09935669 127.04935861 -11.90775666 127.55677704 -14 128 C-26.86483021 97.68188346 -28.91030887 61.19860058 -17.25390625 30.0234375 C-16.84011719 29.02570313 -16.42632812 28.02796875 -16 27 C-15.72140137 26.31067383 -15.44280273 25.62134766 -15.15576172 24.91113281 C-5.00697674 0 -5.00697674 0 0 0 Z " fill="#E2D3C9" transform="translate(207,425)"/>
<path d="M0 0 C0.73541016 0.23557617 1.47082031 0.47115234 2.22851562 0.71386719 C4.53421958 1.4568594 6.83105594 2.22149428 9.125 3 C9.82415527 3.2367041 10.52331055 3.4734082 11.24365234 3.71728516 C17.86945608 6.08651195 22.87192916 9.59184606 27.8125 14.625 C28.58207031 15.40101563 29.35164063 16.17703125 30.14453125 16.9765625 C32.50877112 19.5548283 32.96717346 20.47477531 33.1875 24 C33 27 33 27 31 29 C25.30722665 29.83742134 21.79511323 27.57233104 17.0625 24.8125 C9.23670714 20.46294392 1.63380886 17.39603361 -7 15 C-7.83273438 14.76667969 -8.66546875 14.53335938 -9.5234375 14.29296875 C-19.11218634 12.01850444 -29.54337963 11.91394432 -39.3671875 12.04296875 C-43.34921192 11.99586954 -45.13011636 11.78019978 -48 9 C-48.5625 5.5625 -48.5625 5.5625 -48 2 C-38.78929793 -10.62207321 -12.51951087 -4.17111048 0 0 Z " fill="#161311" transform="translate(256,167)"/>
<path d="M0 0 C2.12109375 1.640625 2.12109375 1.640625 2.93359375 4.328125 C2.99546875 5.09125 3.05734375 5.854375 3.12109375 6.640625 C1.5234375 8.1796875 1.5234375 8.1796875 -0.87890625 9.640625 C-3.9375 9.5390625 -3.9375 9.5390625 -7.31640625 9.015625 C-12.59250472 8.33564599 -12.59250472 8.33564599 -17.12890625 10.953125 C-18.8432274 13.47484997 -18.8432274 13.47484997 -19.87890625 15.640625 C-19.15703125 15.7025 -18.43515625 15.764375 -17.69140625 15.828125 C-13.87655944 16.93019186 -12.35659934 18.5602498 -9.87890625 21.640625 C-7.69267049 26.95005471 -6.95230901 32.9415538 -7.87890625 38.640625 C-9.23828125 40.44921875 -9.23828125 40.44921875 -10.87890625 41.640625 C-14.22083317 41.39609376 -15.48434182 41.03518943 -17.87890625 38.640625 C-18.1875 36.65234375 -18.1875 36.65234375 -18.31640625 34.328125 C-18.66962011 30.41754296 -19.35142848 27.77469744 -21.87890625 24.640625 C-22.53890625 24.640625 -23.19890625 24.640625 -23.87890625 24.640625 C-24.08644531 25.341875 -24.29398437 26.043125 -24.5078125 26.765625 C-26.7765367 33.75215644 -29.6372115 38.50199728 -34.87890625 43.640625 C-37.25390625 43.453125 -37.25390625 43.453125 -39.87890625 42.640625 C-41.3515625 40.421875 -41.3515625 40.421875 -41.87890625 37.640625 C-40.9375 34.984375 -40.9375 34.984375 -39.31640625 32.140625 C-36.97552809 27.82959599 -35.07122385 23.64255684 -33.44140625 19.015625 C-30.65450183 11.59871961 -26.64901122 2.8189955 -19.1015625 -0.80859375 C-12.9863612 -2.32395998 -5.75368068 -2.71679902 0 0 Z " fill="#171311" transform="translate(416.87890625,248.359375)"/>
<path d="M0 0 C7.5663609 4.36385466 14.70805851 10.96758909 17.51953125 19.453125 C17.02453125 20.938125 17.02453125 20.938125 16.51953125 22.453125 C15.82988281 21.86144531 15.14023437 21.26976562 14.4296875 20.66015625 C8.74021572 15.87600508 3.19955482 11.73540819 -3.48046875 8.453125 C-3.15046875 9.113125 -2.82046875 9.773125 -2.48046875 10.453125 C-1.83831842 16.51650597 -2.50105503 21.13274337 -5.48046875 26.453125 C-7.95229211 29.18978658 -9.28419159 29.42508541 -12.98046875 29.953125 C-16.48046875 29.453125 -16.48046875 29.453125 -18.85546875 27.140625 C-21.15696078 23.33431125 -21.59964854 20.62996873 -21.54296875 16.265625 C-21.53394531 15.36457031 -21.52492187 14.46351563 -21.515625 13.53515625 C-21.50402344 12.84808594 -21.49242187 12.16101563 -21.48046875 11.453125 C-22.10308594 11.64132813 -22.72570312 11.82953125 -23.3671875 12.0234375 C-25.48046875 12.453125 -25.48046875 12.453125 -27.29296875 11.328125 C-28.48046875 9.453125 -28.48046875 9.453125 -28.60546875 7.140625 C-26.94129444 3.16509748 -23.98776152 0.87300385 -20.48046875 -1.546875 C-13.5250203 -3.86535782 -6.62056627 -2.96100917 0 0 Z " fill="#161211" transform="translate(250.48046875,194.546875)"/>
<path d="M0 0 C1.72973114 1.72973114 1.17208117 4.02516963 1.1875 6.375 C1.20167969 7.35210937 1.21585938 8.32921875 1.23046875 9.3359375 C1 12 1 12 -1 15 C-1.515625 14.34 -2.03125 13.68 -2.5625 13 C-4.90428544 10.73227552 -4.90428544 10.73227552 -8.25 10.5 C-13.35932877 11.18124384 -17.93924208 12.9042292 -21.609375 16.63671875 C-23 18 -23 18 -25 18 C-25 12.39 -25 6.78 -25 1 C-17.23783748 -2.88108126 -8.05511202 -3.42342261 0 0 Z " fill="#CD9675" transform="translate(171,184)"/>
<path d="M0 0 C3.52744682 0.85916031 4.973663 2.54444741 6.97265625 5.48046875 C7.63616346 9.60895806 7.40779963 11.67980493 5.41015625 15.35546875 C2.15689246 18.19164744 0.27710164 18.6288979 -4.02734375 18.48046875 C-7.46484375 16.54296875 -7.46484375 16.54296875 -10.02734375 13.48046875 C-11.13098887 9.29335711 -10.4402619 6.30630505 -8.52734375 2.48046875 C-5.66601138 0.19140286 -3.66131403 -0.25321237 0 0 Z " fill="#141413" transform="translate(261.02734375,552.51953125)"/>
<path d="M0 0 C0.99 0.33 1.98 0.66 3 1 C2.38253906 1.43828125 1.76507813 1.8765625 1.12890625 2.328125 C-7.27908258 8.62451846 -13.75676989 16.12193151 -18.1875 25.6875 C-19.3125 27.58203125 -19.3125 27.58203125 -21 29 C-24.51263961 29.73030645 -27.8088615 29.87666249 -31.39453125 29.92578125 C-36.08937014 30.02242474 -40.4472536 30.9195095 -45 32 C-45 31.34 -45 30.68 -45 30 C-39.21558175 28.12034378 -34.23757885 26.81754544 -28.125 27.25 C-24.34828549 27.43495029 -24.34828549 27.43495029 -21.234375 25.55859375 C-19.22480086 22.79254199 -18.08198008 20.24594023 -17 17 C-16.34 17 -15.68 17 -15 17 C-14.73960937 16.43539063 -14.47921875 15.87078125 -14.2109375 15.2890625 C-12.88249571 12.77787898 -11.35205325 10.62997345 -9.625 8.375 C-9.03976563 7.59898438 -8.45453125 6.82296875 -7.8515625 6.0234375 C-5.97125997 3.96859212 -4.50708253 3.12457612 -2 2 C-1.34 1.34 -0.68 0.68 0 0 Z " fill="#0B0A0A" transform="translate(175,11)"/>
<path d="M0 0 C0.66 0.66 1.32 1.32 2 2 C-8.44921875 12.44921875 -8.44921875 12.44921875 -10.29052734 14.27880859 C-11.79111239 15.78968042 -13.25250989 17.33926382 -14.70703125 18.89453125 C-17.02972287 21.02729238 -18.02819245 21.41032773 -21 22 C-16.61557474 16.74825074 -11.99157907 11.86777527 -7.125 7.0625 C-6.43664062 6.37865234 -5.74828125 5.69480469 -5.0390625 4.99023438 C-3.36166489 3.32448536 -1.68196209 1.6611378 0 0 Z " fill="#D3A283" transform="translate(156,226)"/>
<path d="M0 0 C0.66 0 1.32 0 2 0 C2.8429977 5.42861449 3.38371529 10.83163008 3.75 16.3125 C3.81832031 17.12267578 3.88664062 17.93285156 3.95703125 18.76757812 C4.109375 21.11328125 4.109375 21.11328125 4 25 C3.01 25.66 2.02 26.32 1 27 C0.67 18.09 0.34 9.18 0 0 Z " fill="#0C0C0B" transform="translate(500,170)"/>
<path d="M0 0 C0.62261719 0.15339844 1.24523437 0.30679688 1.88671875 0.46484375 C6.18274772 1.20330795 10.46241952 1.36462162 14.8125 1.5625 C15.69615234 1.60568359 16.57980469 1.64886719 17.49023438 1.69335938 C19.65999623 1.79891536 21.8299791 1.89991071 24 2 C24 2.33 24 2.66 24 3 C20.91675903 3.16840479 17.83339379 3.33441862 14.75 3.5 C13.87730469 3.54769531 13.00460938 3.59539062 12.10546875 3.64453125 C11.26113281 3.68964844 10.41679687 3.73476562 9.546875 3.78125 C8.38430176 3.8440918 8.38430176 3.8440918 7.19824219 3.90820312 C5.13373418 3.99441537 3.0663073 4 1 4 C0.67 4.33 0.34 4.66 0 5 C0.99 5.99 1.98 6.98 3 8 C0.69 8 -1.62 8 -4 8 C-2.68 5.36 -1.36 2.72 0 0 Z " fill="#D0A489" transform="translate(154,160)"/>
<path d="M0 0 C0 3 0 3 -2.44921875 5.8125 C-3.52088116 6.88283115 -4.60069522 7.94504765 -5.6875 9 C-6.48317383 9.80050781 -6.48317383 9.80050781 -7.29492188 10.6171875 C-10.31680696 13.59828641 -13.22328668 15.98201589 -17 18 C-17 15 -17 15 -15.56640625 13.45703125 C-14.90511719 12.91433594 -14.24382812 12.37164062 -13.5625 11.8125 C-12.84191406 11.20921875 -12.12132812 10.6059375 -11.37890625 9.984375 C-10.59386719 9.32953125 -9.80882812 8.6746875 -9 8 C-7.32824391 6.52658785 -5.66144387 5.04753066 -4 3.5625 C-3.236875 2.88316406 -2.47375 2.20382812 -1.6875 1.50390625 C-1.130625 1.00761719 -0.57375 0.51132812 0 0 Z " fill="#1C0F0A" transform="translate(369,467)"/>
<path d="M0 0 C6.58516714 0.95811901 11.85140847 7.28623548 15.796875 12.26953125 C18.24378718 15.97426626 18.24378718 15.97426626 19 18 C18.67 18.99 18.34 19.98 18 21 C17.5153125 20.21496094 17.030625 19.42992188 16.53125 18.62109375 C12.30685894 12.00017314 8.16908067 6.83679095 2 2 C1.34 1.34 0.68 0.68 0 0 Z " fill="#0A0A0A" transform="translate(385,16)"/>
<path d="M0 0 C0.66 0.33 1.32 0.66 2 1 C1.03900391 1.80050781 1.03900391 1.80050781 0.05859375 2.6171875 C-6.02961995 7.86158022 -10.71622526 13.2055361 -15 20 C-16 17 -16 17 -15 14 C-14.34 14 -13.68 14 -13 14 C-12.7628125 13.43667969 -12.525625 12.87335938 -12.28125 12.29296875 C-10.71350057 9.48727084 -8.79085403 7.56244592 -6.5 5.3125 C-5.7059375 4.52488281 -4.911875 3.73726563 -4.09375 2.92578125 C-2 1 -2 1 0 0 Z " fill="#0C0B0B" transform="translate(96,87)"/>
<path d="M0 0 C0.33 2.31 0.66 4.62 1 7 C-0.98 7.99 -0.98 7.99 -3 9 C-5 6 -5 6 -4.8125 3.9375 C-3.89607287 1.75217377 -2.68626519 0 0 0 Z " fill="#C79D83" transform="translate(154,208)"/>
<path d="M0 0 C2.64 0 5.28 0 8 0 C8 3.63 8 7.26 8 11 C6 9 6 9 5.875 5.375 C5.91625 4.26125 5.9575 3.1475 6 2 C4.35 2 2.7 2 1 2 C0.67 1.34 0.34 0.68 0 0 Z " fill="#0E0D0C" transform="translate(128,194)"/>
<path d="M0 0 C-0.33 5.61 -0.66 11.22 -1 17 C-1.33 17 -1.66 17 -2 17 C-2.33 12.05 -2.66 7.1 -3 2 C-5.97 1.67 -8.94 1.34 -12 1 C-12 0.67 -12 0.34 -12 0 C-10.56359829 -0.19573608 -9.12580496 -0.38127816 -7.6875 -0.5625 C-6.88699219 -0.66691406 -6.08648437 -0.77132812 -5.26171875 -0.87890625 C-3 -1 -3 -1 0 0 Z " fill="#D7AD94" transform="translate(320,177)"/>
<path d="M0 0 C0.99 0.66 1.98 1.32 3 2 C2.6875 4.375 2.6875 4.375 2 7 C-1 9 -1 9 -4 9 C-3.67 8.01 -3.34 7.02 -3 6 C-2.01 6 -1.02 6 0 6 C0 4.02 0 2.04 0 0 Z " fill="#2A1A13" transform="translate(417,249)"/>
<path d="M0 0 C0 0.66 0 1.32 0 2 C1.65 2 3.3 2 5 2 C5 2.33 5 2.66 5 3 C0.71 3 -3.58 3 -8 3 C-8 2.34 -8 1.68 -8 1 C-5.23735711 0.40267181 -2.83967231 0 0 0 Z " fill="#0D0C0B" transform="translate(201,401)"/>
<path d="M0 0 C0.66 0.33 1.32 0.66 2 1 C-0.31 3.64 -2.62 6.28 -5 9 C-5.66 8.34 -6.32 7.68 -7 7 C-4.69 4.69 -2.38 2.38 0 0 Z " fill="#1C1C1B" transform="translate(8,510)"/>
<path d="M0 0 C1.35015859 4.05047576 0.62084998 6.7920168 0 11 C-0.33 11 -0.66 11 -1 11 C-1.1953125 8.94921875 -1.390625 6.8984375 -1.5859375 4.84765625 C-1.72257813 4.23792969 -1.85921875 3.62820312 -2 3 C-2.66 2.67 -3.32 2.34 -4 2 C-2.68 1.34 -1.36 0.68 0 0 Z " fill="#D5AA90" transform="translate(229,205)"/>
<path d="M0 0 C0.99 0.495 0.99 0.495 2 1 C2.34342449 2.33076989 2.67619874 3.66431979 3 5 C3.66 5.66 4.32 6.32 5 7 C3.35 7 1.7 7 0 7 C0 4.69 0 2.38 0 0 Z " fill="#0C0A09" transform="translate(386,395)"/>
<path d="" fill="#252221" transform="translate(0,0)"/>
<path d="" fill="#180F0C" transform="translate(0,0)"/>
<path d="M0 0 C2 1 2 1 2 1 Z " fill="#3F3B39" transform="translate(503,490)"/>
<path d="M0 0 C2 1 2 1 2 1 Z " fill="#AFA49C" transform="translate(494,483)"/>
<path d="M0 0 C2 1 2 1 2 1 Z " fill="#B1A59D" transform="translate(105,465)"/>
<path d="M0 0 C2 1 2 1 2 1 Z " fill="#928982" transform="translate(469,464)"/>
<path d="M0 0 C2 1 2 1 2 1 Z " fill="#8F6750" transform="translate(130,307)"/>
<path d="" fill="#4D382D" transform="translate(0,0)"/>
<path d="" fill="#976D55" transform="translate(0,0)"/>
<path d="" fill="#614436" transform="translate(0,0)"/>
<path d="M0 0 C2 1 2 1 2 1 Z " fill="#2C201B" transform="translate(483,250)"/>
<path d="" fill="#16110F" transform="translate(0,0)"/>
<path d="" fill="#191412" transform="translate(0,0)"/>
<path d="" fill="#140F0E" transform="translate(0,0)"/>
<path d="" fill="#231815" transform="translate(0,0)"/>
<path d="" fill="#37261F" transform="translate(0,0)"/>
<path d="M0 0 C2 1 2 1 2 1 Z " fill="#35241E" transform="translate(170,9)"/>
<path d="" fill="#302E2C" transform="translate(0,0)"/>
<path d="" fill="#34312F" transform="translate(0,0)"/>
<path d="" fill="#BBAFA7" transform="translate(0,0)"/>
<path d="" fill="#9E948D" transform="translate(0,0)"/>
<path d="" fill="#A59A93" transform="translate(0,0)"/>
<path d="" fill="#4D4845" transform="translate(0,0)"/>
<path d="" fill="#44403C" transform="translate(0,0)"/>
<path d="" fill="#3F3B38" transform="translate(0,0)"/>
<path d="" fill="#353230" transform="translate(0,0)"/>
<path d="" fill="#ADA29A" transform="translate(0,0)"/>
<path d="" fill="#A19790" transform="translate(0,0)"/>
<path d="" fill="#363230" transform="translate(0,0)"/>
<path d="" fill="#413D3A" transform="translate(0,0)"/>
<path d="" fill="#AB9F98" transform="translate(0,0)"/>
<path d="" fill="#383532" transform="translate(0,0)"/>
<path d="" fill="#A19790" transform="translate(0,0)"/>
<path d="" fill="#423E3C" transform="translate(0,0)"/>
<path d="" fill="#BBB0A8" transform="translate(0,0)"/>
<path d="" fill="#A59A93" transform="translate(0,0)"/>
<path d="" fill="#ACA199" transform="translate(0,0)"/>
<path d="" fill="#ACA199" transform="translate(0,0)"/>
<path d="" fill="#AA9F98" transform="translate(0,0)"/>
<path d="" fill="#AA9F98" transform="translate(0,0)"/>
<path d="" fill="#45403E" transform="translate(0,0)"/>
<path d="" fill="#A1968F" transform="translate(0,0)"/>
<path d="" fill="#B0A49D" transform="translate(0,0)"/>
<path d="" fill="#57514C" transform="translate(0,0)"/>
<path d="" fill="#A0968F" transform="translate(0,0)"/>
<path d="" fill="#322F2D" transform="translate(0,0)"/>
<path d="" fill="#7C746E" transform="translate(0,0)"/>
<path d="" fill="#7D746F" transform="translate(0,0)"/>
<path d="" fill="#3D3936" transform="translate(0,0)"/>
<path d="" fill="#938A83" transform="translate(0,0)"/>
<path d="" fill="#928882" transform="translate(0,0)"/>
<path d="" fill="#918881" transform="translate(0,0)"/>
<path d="" fill="#756D68" transform="translate(0,0)"/>
<path d="" fill="#A19791" transform="translate(0,0)"/>
<path d="" fill="#AEA29B" transform="translate(0,0)"/>
<path d="" fill="#302D2C" transform="translate(0,0)"/>
<path d="" fill="#3F3B38" transform="translate(0,0)"/>
<path d="" fill="#A49B95" transform="translate(0,0)"/>
<path d="" fill="#857D78" transform="translate(0,0)"/>
<path d="" fill="#4E4844" transform="translate(0,0)"/>
<path d="" fill="#8E857F" transform="translate(0,0)"/>
<path d="" fill="#2F2C2B" transform="translate(0,0)"/>
<path d="" fill="#988E88" transform="translate(0,0)"/>
<path d="" fill="#978D87" transform="translate(0,0)"/>
<path d="" fill="#908780" transform="translate(0,0)"/>
<path d="" fill="#8C857F" transform="translate(0,0)"/>
<path d="" fill="#887F79" transform="translate(0,0)"/>
<path d="" fill="#594C45" transform="translate(0,0)"/>
<path d="" fill="#7F6E63" transform="translate(0,0)"/>
<path d="" fill="#817872" transform="translate(0,0)"/>
<path d="" fill="#807872" transform="translate(0,0)"/>
<path d="" fill="#282523" transform="translate(0,0)"/>
<path d="" fill="#8A6E5D" transform="translate(0,0)"/>
<path d="" fill="#836959" transform="translate(0,0)"/>
<path d="" fill="#271C18" transform="translate(0,0)"/>
<path d="" fill="#27221F" transform="translate(0,0)"/>
<path d="" fill="#37251D" transform="translate(0,0)"/>
<path d="" fill="#6D5F55" transform="translate(0,0)"/>
<path d="" fill="#6D5E55" transform="translate(0,0)"/>
<path d="" fill="#6F6056" transform="translate(0,0)"/>
<path d="" fill="#7C685B" transform="translate(0,0)"/>
<path d="" fill="#231E1A" transform="translate(0,0)"/>
<path d="" fill="#896752" transform="translate(0,0)"/>
<path d="" fill="#302722" transform="translate(0,0)"/>
<path d="" fill="#755F52" transform="translate(0,0)"/>
<path d="" fill="#271D17" transform="translate(0,0)"/>
<path d="" fill="#755F52" transform="translate(0,0)"/>
<path d="" fill="#7D6252" transform="translate(0,0)"/>
<path d="" fill="#795C4A" transform="translate(0,0)"/>
<path d="" fill="#321F14" transform="translate(0,0)"/>
<path d="" fill="#82614E" transform="translate(0,0)"/>
<path d="" fill="#271E19" transform="translate(0,0)"/>
<path d="" fill="#745746" transform="translate(0,0)"/>
<path d="" fill="#251D17" transform="translate(0,0)"/>
<path d="" fill="#271E19" transform="translate(0,0)"/>
<path d="" fill="#83614D" transform="translate(0,0)"/>
<path d="" fill="#89644E" transform="translate(0,0)"/>
<path d="" fill="#8B6751" transform="translate(0,0)"/>
<path d="" fill="#89644E" transform="translate(0,0)"/>
<path d="" fill="#1F1A17" transform="translate(0,0)"/>
<path d="" fill="#261D18" transform="translate(0,0)"/>
<path d="" fill="#211A17" transform="translate(0,0)"/>
<path d="" fill="#201B18" transform="translate(0,0)"/>
<path d="" fill="#8B664F" transform="translate(0,0)"/>
<path d="" fill="#7E5C47" transform="translate(0,0)"/>
<path d="" fill="#422E23" transform="translate(0,0)"/>
<path d="" fill="#60493C" transform="translate(0,0)"/>
<path d="" fill="#5A4335" transform="translate(0,0)"/>
<path d="" fill="#1A1614" transform="translate(0,0)"/>
<path d="" fill="#684D3E" transform="translate(0,0)"/>
<path d="" fill="#1A1613" transform="translate(0,0)"/>
<path d="" fill="#563F32" transform="translate(0,0)"/>
<path d="" fill="#2E1E18" transform="translate(0,0)"/>
<path d="" fill="#84604B" transform="translate(0,0)"/>
<path d="" fill="#181411" transform="translate(0,0)"/>
<path d="" fill="#1D1916" transform="translate(0,0)"/>
<path d="" fill="#1A1613" transform="translate(0,0)"/>
<path d="" fill="#151312" transform="translate(0,0)"/>
<path d="" fill="#1F1814" transform="translate(0,0)"/>
<path d="" fill="#171412" transform="translate(0,0)"/>
<path d="" fill="#181613" transform="translate(0,0)"/>
<path d="" fill="#3E2F27" transform="translate(0,0)"/>
<path d="" fill="#49352B" transform="translate(0,0)"/>
<path d="" fill="#8E6750" transform="translate(0,0)"/>
<path d="" fill="#8E6750" transform="translate(0,0)"/>
<path d="" fill="#906850" transform="translate(0,0)"/>
<path d="" fill="#684B3A" transform="translate(0,0)"/>
<path d="" fill="#171311" transform="translate(0,0)"/>
<path d="" fill="#433128" transform="translate(0,0)"/>
<path d="" fill="#171511" transform="translate(0,0)"/>
<path d="" fill="#1E1816" transform="translate(0,0)"/>
<path d="" fill="#3B2B22" transform="translate(0,0)"/>
<path d="" fill="#755744" transform="translate(0,0)"/>
<path d="" fill="#755744" transform="translate(0,0)"/>
<path d="" fill="#735543" transform="translate(0,0)"/>
<path d="" fill="#755744" transform="translate(0,0)"/>
<path d="" fill="#745644" transform="translate(0,0)"/>
<path d="" fill="#6F5241" transform="translate(0,0)"/>
<path d="" fill="#6F5241" transform="translate(0,0)"/>
<path d="" fill="#3B2922" transform="translate(0,0)"/>
<path d="" fill="#161211" transform="translate(0,0)"/>
<path d="" fill="#1C1613" transform="translate(0,0)"/>
<path d="" fill="#6A4E3D" transform="translate(0,0)"/>
<path d="" fill="#120B09" transform="translate(0,0)"/>
<path d="" fill="#13100F" transform="translate(0,0)"/>
<path d="" fill="#281B15" transform="translate(0,0)"/>
<path d="" fill="#191412" transform="translate(0,0)"/>
<path d="" fill="#684C3C" transform="translate(0,0)"/>
<path d="" fill="#624839" transform="translate(0,0)"/>
<path d="" fill="#1E110E" transform="translate(0,0)"/>
<path d="" fill="#130F0F" transform="translate(0,0)"/>
<path d="" fill="#110E0D" transform="translate(0,0)"/>
<path d="" fill="#3A271C" transform="translate(0,0)"/>
<path d="" fill="#674C3D" transform="translate(0,0)"/>
<path d="" fill="#423128" transform="translate(0,0)"/>
<path d="" fill="#17100E" transform="translate(0,0)"/>
<path d="" fill="#181311" transform="translate(0,0)"/>
<path d="" fill="#30221D" transform="translate(0,0)"/>
<path d="" fill="#30221D" transform="translate(0,0)"/>
<path d="" fill="#141110" transform="translate(0,0)"/>
<path d="" fill="#3A2720" transform="translate(0,0)"/>
<path d="" fill="#13100D" transform="translate(0,0)"/>
<path d="" fill="#33231D" transform="translate(0,0)"/>
<path d="" fill="#191412" transform="translate(0,0)"/>
<path d="" fill="#181412" transform="translate(0,0)"/>
<path d="" fill="#201511" transform="translate(0,0)"/>
<path d="" fill="#33231D" transform="translate(0,0)"/>
<path d="" fill="#38261F" transform="translate(0,0)"/>
<path d="" fill="#150E0C" transform="translate(0,0)"/>
<path d="" fill="#38261F" transform="translate(0,0)"/>
<path d="" fill="#120F0D" transform="translate(0,0)"/>
<path d="" fill="#13100F" transform="translate(0,0)"/>
<path d="" fill="#271813" transform="translate(0,0)"/>
<path d="" fill="#120B09" transform="translate(0,0)"/>
<path d="" fill="#33231D" transform="translate(0,0)"/>
<path d="" fill="#35241E" transform="translate(0,0)"/>
<path d="" fill="#151210" transform="translate(0,0)"/>
<path d="" fill="#35241E" transform="translate(0,0)"/>
<path d="" fill="#35241E" transform="translate(0,0)"/>
<path d="" fill="#493731" transform="translate(0,0)"/>
<path d="" fill="#38261F" transform="translate(0,0)"/>
<path d="" fill="#38261F" transform="translate(0,0)"/>
<path d="" fill="#3E2C26" transform="translate(0,0)"/>
<path d="" fill="#15100E" transform="translate(0,0)"/>
<path d="" fill="#35241D" transform="translate(0,0)"/>
<path d="" fill="#161311" transform="translate(0,0)"/>
<path d="" fill="#161211" transform="translate(0,0)"/>
<path d="" fill="#34231D" transform="translate(0,0)"/>
<path d="" fill="#151312" transform="translate(0,0)"/>
<path d="" fill="#37251F" transform="translate(0,0)"/>
<path d="" fill="#34231D" transform="translate(0,0)"/>
<path d="" fill="#151211" transform="translate(0,0)"/>
<path d="" fill="#3D2B25" transform="translate(0,0)"/>
<path d="" fill="#36251E" transform="translate(0,0)"/>
<path d="" fill="#36251E" transform="translate(0,0)"/>
<path d="" fill="#36251F" transform="translate(0,0)"/>
<path d="" fill="#35241E" transform="translate(0,0)"/>
<path d="" fill="#37251F" transform="translate(0,0)"/>
<path d="" fill="#34231D" transform="translate(0,0)"/>
<path d="" fill="#34231D" transform="translate(0,0)"/>
<path d="" fill="#1E1512" transform="translate(0,0)"/>
<path d="" fill="#36251E" transform="translate(0,0)"/>
<path d="" fill="#34231D" transform="translate(0,0)"/>
<path d="" fill="#34231D" transform="translate(0,0)"/>
<path d="" fill="#37251F" transform="translate(0,0)"/>
<path d="" fill="#21120D" transform="translate(0,0)"/>
<path d="" fill="#15100F" transform="translate(0,0)"/>
<path d="" fill="#33231D" transform="translate(0,0)"/>
<path d="" fill="#0D0B0B" transform="translate(0,0)"/>
<path d="" fill="#34231D" transform="translate(0,0)"/>
<path d="" fill="#130E0D" transform="translate(0,0)"/>
<path d="" fill="#34241E" transform="translate(0,0)"/>
<path d="" fill="#41342F" transform="translate(0,0)"/>
<path d="" fill="#110F0D" transform="translate(0,0)"/>
<path d="" fill="#30221C" transform="translate(0,0)"/>
<path d="" fill="#38261F" transform="translate(0,0)"/>
<path d="" fill="#503D37" transform="translate(0,0)"/>
<path d="" fill="#151210" transform="translate(0,0)"/>
<path d="" fill="#171210" transform="translate(0,0)"/>
<path d="" fill="#352621" transform="translate(0,0)"/>
<path d="" fill="#37251F" transform="translate(0,0)"/>
<path d="" fill="#33231D" transform="translate(0,0)"/>
<path d="" fill="#35241E" transform="translate(0,0)"/>
<path d="" fill="#37251F" transform="translate(0,0)"/>
<path d="" fill="#37251E" transform="translate(0,0)"/>
<path d="" fill="#3C2720" transform="translate(0,0)"/>
<path d="" fill="#3C2A23" transform="translate(0,0)"/>
<path d="" fill="#39261F" transform="translate(0,0)"/>
<path d="" fill="#36251E" transform="translate(0,0)"/>
<path d="" fill="#100909" transform="translate(0,0)"/>
<path d="" fill="#38241E" transform="translate(0,0)"/>
<path d="" fill="#1C1411" transform="translate(0,0)"/>
<path d="" fill="#3A2720" transform="translate(0,0)"/>
</svg>
