<svg width="200" height="200" xmlns="http://www.w3.org/2000/svg">
  <!-- Main chip outline -->
  <rect x="30" y="60" width="140" height="120" rx="25" ry="25" 
        fill="none" stroke="#2196F3" stroke-width="8"/>
  
  <!-- Top connector pins -->
  <rect x="75" y="25" width="12" height="35" rx="6" ry="6" fill="#2196F3"/>
  <rect x="94" y="25" width="12" height="35" rx="6" ry="6" fill="#2196F3"/>
  <rect x="113" y="25" width="12" height="35" rx="6" ry="6" fill="#2196F3"/>
  
  <!-- Bottom connector pins -->
  <rect x="75" y="180" width="12" height="35" rx="6" ry="6" fill="#2196F3"/>
  <rect x="94" y="180" width="12" height="35" rx="6" ry="6" fill="#2196F3"/>
  <rect x="113" y="180" width="12" height="35" rx="6" ry="6" fill="#2196F3"/>
  
  <!-- Left side connector pins -->
  <rect x="10" y="95" width="20" height="10" rx="5" ry="5" fill="#2196F3"/>
  <rect x="10" y="115" width="20" height="10" rx="5" ry="5" fill="#2196F3"/>
  <rect x="10" y="135" width="20" height="10" rx="5" ry="5" fill="#2196F3"/>
  
  <!-- Right side connector pins -->
  <rect x="170" y="95" width="20" height="10" rx="5" ry="5" fill="#2196F3"/>
  <rect x="170" y="115" width="20" height="10" rx="5" ry="5" fill="#2196F3"/>
  <rect x="170" y="135" width="20" height="10" rx="5" ry="5" fill="#2196F3"/>
  
  <!-- Inner circuit area -->
  <rect x="45" y="75" width="110" height="90" rx="15" ry="15" 
        fill="rgba(255,255,255,0.05)" stroke="rgba(33,150,243,0.3)" stroke-width="2"/>
  
  <!-- Data visualization bars -->
  <rect x="65" y="125" width="12" height="30" rx="2" ry="2" fill="#2196F3"/>
  <rect x="82" y="115" width="12" height="40" rx="2" ry="2" fill="#2196F3"/>
  <rect x="99" y="105" width="12" height="50" rx="2" ry="2" fill="#2196F3"/>
  <rect x="116" y="110" width="12" height="45" rx="2" ry="2" fill="#2196F3"/>
  <rect x="133" y="120" width="12" height="35" rx="2" ry="2" fill="#2196F3"/>
</svg>
